<svg aria-hidden="true" style="position: absolute; width: 0; height: 0; overflow: hidden;" version="1.1"
  xmlns="http://www.w3.org/2000/svg" xmlns:xlink="http://www.w3.org/1999/xlink">
  <defs>
    <symbol id="icon-sun" viewBox="0 0 32 32">
      <path
        d="M9.324 16c0 3.681 2.995 6.676 6.676 6.676s6.676-2.995 6.676-6.676c0-3.681-2.995-6.676-6.676-6.676s-6.676 2.995-6.676 6.676zM16 11.991c2.211 0 4.009 1.799 4.009 4.009s-1.799 4.009-4.009 4.009c-2.211 0-4.009-1.799-4.009-4.009s1.799-4.009 4.009-4.009zM14.664 25.333h2.667v4h-2.667v-4zM14.664 2.667h2.667v4h-2.667v-4zM2.664 14.667h4v2.667h-4v-2.667zM25.331 14.667h4v2.667h-4v-2.667zM5.625 24.484l2.827-2.829 1.887 1.885-2.827 2.829-1.887-1.885zM21.653 8.459l2.829-2.829 1.885 1.885-2.829 2.829-1.885-1.885zM8.456 10.345l-2.829-2.829 1.887-1.885 2.827 2.829-1.884 1.885zM26.368 24.485l-1.885 1.885-2.829-2.829 1.885-1.885 2.829 2.829z">
      </path>
    </symbol>
     <symbol id="icon-moon" viewBox="0 0 32 32">
      <path
        d="M29.222 18.244c-1.071 0.284-2.174 0.428-3.282 0.428-3.374 0-6.542-1.312-8.922-3.691-1.563-1.572-2.686-3.526-3.259-5.667s-0.573-4.395-0.003-6.537c0.071-0.268 0.071-0.55-0.001-0.817s-0.213-0.512-0.409-0.707c-0.196-0.196-0.44-0.337-0.708-0.408s-0.55-0.072-0.817 0c-2.681 0.715-5.128 2.122-7.094 4.080-6.16 6.16-6.16 16.186 0 22.349 1.464 1.472 3.206 2.64 5.124 3.434s3.975 1.201 6.052 1.196c2.076 0.006 4.132-0.4 6.050-1.195s3.659-1.962 5.122-3.434c1.96-1.966 3.368-4.414 4.082-7.097 0.071-0.268 0.070-0.549-0.002-0.817s-0.213-0.511-0.409-0.707c-0.196-0.196-0.44-0.337-0.707-0.409s-0.549-0.073-0.817-0.002zM24.841 25.041c-1.171 1.177-2.564 2.111-4.098 2.746s-3.179 0.96-4.84 0.956c-1.661 0.004-3.307-0.321-4.841-0.957s-2.928-1.57-4.1-2.747c-4.927-4.929-4.927-12.95 0-17.879 0.952-0.951 2.051-1.742 3.255-2.344-0.176 2.274 0.141 4.559 0.929 6.7s2.029 4.085 3.638 5.702c1.613 1.614 3.558 2.858 5.699 3.647s4.428 1.103 6.703 0.921c-0.604 1.202-1.396 2.3-2.345 3.254z">
      </path>
    </symbol>
    <symbol id="icon-menu" viewBox="0 0 32 32">
      <path stroke-linejoin="round" stroke-linecap="round" stroke-miterlimit="4" stroke-width="2.3529" d="M4 16h24">
      </path>
      <path stroke-linejoin="round" stroke-linecap="round" stroke-miterlimit="4" stroke-width="2.3529" d="M4 8h24">
      </path>
      <path stroke-linejoin="round" stroke-linecap="round" stroke-miterlimit="4" stroke-width="2.3529" d="M4 24h24">
      </path>
    </symbol>
    <symbol id="icon-x-close" viewBox="0 0 32 32">
      <path
        d="M23.733 10.304 22.229 8.8l-5.963 5.963L10.303 8.8l-1.504 1.504 5.963 5.963-5.963 5.963 1.504 1.504 5.963-5.963 5.963 5.963 1.504-1.504-5.963-5.963 5.963-5.963z" />
    </symbol>
    <symbol id="icon-arrow-right-small" viewBox="0 0 19 32">
      <path   stroke-linejoin="round" stroke-linecap="round" stroke-miterlimit="4" stroke-width="4.8" d="M3.2 28.8l12.8-12.8-12.8-12.8"></path>
    </symbol>
    <symbol id="icon-arrow-left-small" viewBox="0 0 19 32">
      <path    stroke-linejoin="round" stroke-linecap="round" stroke-miterlimit="4" stroke-width="4.8" d="M16 28.8l-12.8-12.8 12.8-12.8"></path>
    </symbol>
    <symbol id="icons8-summer-smith" viewBox="0 0 32 32">
      <path fill="#f69272" style="fill: var(--color1, #f69272)" d="M13.12 4.8c0 0-7.68-2.24-8.32 5.76-0.435 5.432 4.48 6.4 0.32 15.68 0 0 6.080-0.64 7.040-7.68s0.96-13.76 0.96-13.76z"></path>
      <path fill="#000" style="fill: var(--color2, #000)" d="M5.12 26.56c-0.102 0-0.198-0.049-0.259-0.132-0.067-0.093-0.080-0.214-0.033-0.319 2.585-5.767 1.594-8.245 0.636-10.642-0.565-1.413-1.148-2.874-0.984-4.932 0.197-2.464 1.068-4.245 2.587-5.292 2.561-1.765 5.997-0.791 6.142-0.749 0.137 0.040 0.231 0.165 0.231 0.308 0 0.067-0.011 6.822-0.963 13.803-0.983 7.205-7.26 7.948-7.324 7.955-0.011 0.001-0.022 0.002-0.033 0.002zM10.832 4.835c-1.063 0-2.336 0.199-3.404 0.937-1.351 0.933-2.128 2.553-2.309 4.814-0.153 1.909 0.378 3.238 0.94 4.644 0.976 2.442 1.984 4.965-0.406 10.589 1.494-0.348 5.437-1.78 6.19-7.302 0.843-6.181 0.944-12.185 0.956-13.467-0.356-0.080-1.090-0.215-1.966-0.215z"></path>
      <path fill="#f69272" style="fill: var(--color1, #f69272)" d="M24.32 9.92c0 0 2.24-7.36-7.36-7.040-10.239 0.341-9.92 12.48-6.080 16.32 4.209 4.209 13.44-9.28 13.44-9.28z"></path>
      <path fill="#000" style="fill: var(--color2, #000)" d="M12.823 20.334c-0.837 0-1.566-0.304-2.169-0.908-2.202-2.202-3.455-7.356-1.811-11.52 1.31-3.317 4.189-5.215 8.107-5.346 3.306-0.11 5.628 0.666 6.886 2.306 1.669 2.175 0.828 5.027 0.791 5.147-0.010 0.031-0.024 0.061-0.042 0.088-0.273 0.399-6.745 9.782-11.424 10.217-0.115 0.011-0.227 0.016-0.338 0.016zM17.561 3.19c-0.193 0-0.389 0.003-0.59 0.010-4.675 0.156-6.676 2.773-7.532 4.941-1.552 3.93-0.39 8.774 1.668 10.833 0.549 0.549 1.203 0.78 1.994 0.707 4.23-0.393 10.441-9.202 10.926-9.899 0.095-0.357 0.662-2.757-0.702-4.531-1.053-1.369-2.99-2.061-5.764-2.061zM24.32 9.92v0z"></path>
      <path fill="#fed5b3" style="fill: var(--color3, #fed5b3)" d="M24.96 8.96c-1.6-4.8-11.2-4.8-12.8 2.24 0 0-0.64 2.56-0.403 6.201-0.882 0.301-1.517 1.135-1.517 2.119 0 1.237 1.003 2.24 2.24 2.24 0.079 0 0.158-0.004 0.235-0.012 0.461 1.671 1.018 3.172 1.685 4.172 2.56 3.84 8.96 3.2 10.56-0.96 1.532-3.985 1.92-10.24 0-16z"></path>
      <path fill="#000" style="fill: var(--color2, #000)" d="M19.396 28.791c-2.16 0-4.128-0.992-5.262-2.693-0.596-0.894-1.153-2.244-1.658-4.018-1.41-0.003-2.556-1.15-2.556-2.56 0-1.012 0.595-1.919 1.504-2.331-0.197-3.524 0.399-5.963 0.426-6.067 0.93-4.091 4.406-5.7 7.101-5.832 3.012-0.15 5.552 1.286 6.313 3.569 2.136 6.407 1.332 12.74-0.005 16.216-0.771 2.003-2.715 3.41-5.074 3.672-0.265 0.029-0.529 0.044-0.789 0.044zM12.715 21.428c0.142 0 0.27 0.095 0.308 0.235 0.505 1.829 1.058 3.202 1.643 4.080 1.138 1.707 3.227 2.615 5.448 2.368 2.12-0.235 3.862-1.486 4.547-3.266 1.299-3.378 2.077-9.538-0.005-15.784-0.669-2.007-2.947-3.268-5.675-3.132-2.589 0.127-5.659 1.597-6.51 5.341-0.008 0.032-0.627 2.567-0.395 6.109 0.009 0.144-0.079 0.277-0.216 0.324-0.778 0.265-1.301 0.996-1.301 1.816 0 1.059 0.861 1.92 1.92 1.92 0.068 0 0.135-0.004 0.201-0.011 0.011-0.001 0.022-0.002 0.034-0.002z"></path>
      <path fill="#000" style="fill: var(--color2, #000)" d="M22.080 19.68h-2.56c-0.088 0-0.16-0.072-0.16-0.16s0.072-0.16 0.16-0.16h2.32l-1.508-3.619c-0.034-0.082 0.005-0.175 0.086-0.209s0.175 0.004 0.209 0.086l1.6 3.84c0.020 0.049 0.015 0.106-0.015 0.15s-0.080 0.071-0.133 0.071z"></path>
      <path fill="#000" style="fill: var(--color2, #000)" d="M20.339 24.55c-0.003 0-0.006 0-0.009 0-1.57-0.005-2.644-1.193-2.689-1.244-0.059-0.066-0.052-0.167 0.013-0.226s0.167-0.053 0.226 0.013c0.010 0.012 1.029 1.134 2.454 1.137 0.002 0 0.004 0 0.006 0 0.949 0 1.872-0.49 2.742-1.458 0.060-0.065 0.161-0.071 0.226-0.012s0.071 0.16 0.012 0.226c-0.934 1.037-1.937 1.563-2.98 1.563z"></path>
      <path fill="#000" style="fill: var(--color2, #000)" d="M14.24 9.6c-0.041 0-0.082-0.016-0.113-0.047-0.062-0.062-0.062-0.163 0-0.226 0.027-0.027 0.689-0.674 2.622-1.319 0.084-0.027 0.174 0.017 0.203 0.101s-0.018 0.174-0.101 0.202c-1.849 0.616-2.492 1.236-2.498 1.242-0.031 0.031-0.072 0.046-0.113 0.046z"></path>
      <path fill="#000" style="fill: var(--color2, #000)" d="M25.28 9.92c-0.041 0-0.082-0.016-0.113-0.047-1.194-1.195-1.804-1.233-1.81-1.233-0.087-0.004-0.156-0.076-0.155-0.163s0.071-0.157 0.158-0.157c0.072 0 0.743 0.037 2.033 1.327 0.062 0.062 0.062 0.164 0 0.226-0.031 0.031-0.072 0.047-0.113 0.047z"></path>
      <path fill="#fff" style="fill: var(--color4, #fff)" d="M19.040 13.44c0 1.502-1.218 2.72-2.72 2.72s-2.72-1.218-2.72-2.72c0-1.502 1.218-2.72 2.72-2.72s2.72 1.218 2.72 2.72z"></path>
      <path fill="#000" style="fill: var(--color2, #000)" d="M16.32 16.32c-1.588 0-2.88-1.292-2.88-2.88s1.292-2.88 2.88-2.88 2.88 1.292 2.88 2.88-1.292 2.88-2.88 2.88zM16.32 10.88c-1.412 0-2.56 1.148-2.56 2.56s1.148 2.56 2.56 2.56 2.56-1.148 2.56-2.56-1.148-2.56-2.56-2.56z"></path>
      <path fill="#fff" style="fill: var(--color4, #fff)" d="M26.080 13.44c0 1.502-1.218 2.72-2.72 2.72s-2.72-1.218-2.72-2.72c0-1.502 1.218-2.72 2.72-2.72s2.72 1.218 2.72 2.72z"></path>
      <path fill="#000" style="fill: var(--color2, #000)" d="M23.36 16.32c-1.588 0-2.88-1.292-2.88-2.88s1.292-2.88 2.88-2.88 2.88 1.292 2.88 2.88-1.292 2.88-2.88 2.88zM23.36 10.88c-1.412 0-2.56 1.148-2.56 2.56s1.148 2.56 2.56 2.56 2.56-1.148 2.56-2.56-1.148-2.56-2.56-2.56z"></path>
      <path fill="#000" style="fill: var(--color2, #000)" d="M17.28 13.6c0 0.265-0.215 0.48-0.48 0.48s-0.48-0.215-0.48-0.48c0-0.265 0.215-0.48 0.48-0.48s0.48 0.215 0.48 0.48z"></path>
      <path fill="#000" style="fill: var(--color2, #000)" d="M24 13.6c0 0.265-0.215 0.48-0.48 0.48s-0.48-0.215-0.48-0.48c0-0.265 0.215-0.48 0.48-0.48s0.48 0.215 0.48 0.48z"></path>
      <path fill="#000" style="fill: var(--color2, #000)" d="M7.254 24.296c-0.025 0-0.050-0.006-0.074-0.018-0.078-0.041-0.109-0.137-0.068-0.216 0.528-1.016 0.85-2.14 0.955-3.342 0.007-0.088 0.086-0.15 0.173-0.145 0.088 0.008 0.153 0.085 0.145 0.173-0.109 1.244-0.443 2.408-0.99 3.461-0.028 0.055-0.084 0.086-0.142 0.086z"></path>
      <path fill="#000" style="fill: var(--color2, #000)" d="M8.258 19.61c-0.086 0-0.156-0.068-0.16-0.153-0.034-0.852-0.17-1.404-0.171-1.409-0.021-0.086 0.031-0.172 0.116-0.194s0.172 0.031 0.194 0.116c0.006 0.023 0.145 0.587 0.18 1.474 0.004 0.088-0.065 0.163-0.153 0.167-0.002-0-0.004-0-0.006-0z"></path>
   </symbol>
  </defs>
</svg>