<svg aria-hidden="true" style="position: absolute; width: 0; height: 0; overflow: hidden;" version="1.1"
  xmlns="http://www.w3.org/2000/svg" xmlns:xlink="http://www.w3.org/1999/xlink">
  <defs>
    <symbol id="icon-sun" viewBox="0 0 32 32">
      <path
        d="M9.324 16c0 3.681 2.995 6.676 6.676 6.676s6.676-2.995 6.676-6.676c0-3.681-2.995-6.676-6.676-6.676s-6.676 2.995-6.676 6.676zM16 11.991c2.211 0 4.009 1.799 4.009 4.009s-1.799 4.009-4.009 4.009c-2.211 0-4.009-1.799-4.009-4.009s1.799-4.009 4.009-4.009zM14.664 25.333h2.667v4h-2.667v-4zM14.664 2.667h2.667v4h-2.667v-4zM2.664 14.667h4v2.667h-4v-2.667zM25.331 14.667h4v2.667h-4v-2.667zM5.625 24.484l2.827-2.829 1.887 1.885-2.827 2.829-1.887-1.885zM21.653 8.459l2.829-2.829 1.885 1.885-2.829 2.829-1.885-1.885zM8.456 10.345l-2.829-2.829 1.887-1.885 2.827 2.829-1.884 1.885zM26.368 24.485l-1.885 1.885-2.829-2.829 1.885-1.885 2.829 2.829z">
      </path>
    </symbol>
     <symbol id="icon-moon" viewBox="0 0 32 32">
      <path
        d="M29.222 18.244c-1.071 0.284-2.174 0.428-3.282 0.428-3.374 0-6.542-1.312-8.922-3.691-1.563-1.572-2.686-3.526-3.259-5.667s-0.573-4.395-0.003-6.537c0.071-0.268 0.071-0.55-0.001-0.817s-0.213-0.512-0.409-0.707c-0.196-0.196-0.44-0.337-0.708-0.408s-0.55-0.072-0.817 0c-2.681 0.715-5.128 2.122-7.094 4.080-6.16 6.16-6.16 16.186 0 22.349 1.464 1.472 3.206 2.64 5.124 3.434s3.975 1.201 6.052 1.196c2.076 0.006 4.132-0.4 6.050-1.195s3.659-1.962 5.122-3.434c1.96-1.966 3.368-4.414 4.082-7.097 0.071-0.268 0.070-0.549-0.002-0.817s-0.213-0.511-0.409-0.707c-0.196-0.196-0.44-0.337-0.707-0.409s-0.549-0.073-0.817-0.002zM24.841 25.041c-1.171 1.177-2.564 2.111-4.098 2.746s-3.179 0.96-4.84 0.956c-1.661 0.004-3.307-0.321-4.841-0.957s-2.928-1.57-4.1-2.747c-4.927-4.929-4.927-12.95 0-17.879 0.952-0.951 2.051-1.742 3.255-2.344-0.176 2.274 0.141 4.559 0.929 6.7s2.029 4.085 3.638 5.702c1.613 1.614 3.558 2.858 5.699 3.647s4.428 1.103 6.703 0.921c-0.604 1.202-1.396 2.3-2.345 3.254z">
      </path>
    </symbol>
    <symbol id="icon-menu" viewBox="0 0 32 32">
      <path stroke-linejoin="round" stroke-linecap="round" stroke-miterlimit="4" stroke-width="2.3529" d="M4 16h24">
      </path>
      <path stroke-linejoin="round" stroke-linecap="round" stroke-miterlimit="4" stroke-width="2.3529" d="M4 8h24">
      </path>
      <path stroke-linejoin="round" stroke-linecap="round" stroke-miterlimit="4" stroke-width="2.3529" d="M4 24h24">
      </path>
    </symbol>
    <symbol id="icon-x-close" viewBox="0 0 32 32">
      <path
        d="M23.733 10.304 22.229 8.8l-5.963 5.963L10.303 8.8l-1.504 1.504 5.963 5.963-5.963 5.963 1.504 1.504 5.963-5.963 5.963 5.963 1.504-1.504-5.963-5.963 5.963-5.963z" />
    </symbol>
  </defs>
</svg>